Coordinates
version=1
nRows=14
nColumns=63
inDegrees=yes

Units are S.I. units (second, meters, Newtons, ...)
If the header above contains a line with 'inDegrees', this indicates whether rotational values are in degrees (yes) or radians (no).

endheader
time	pelvis_tilt	pelvis_list	pelvis_rotation	pelvis_tx	pelvis_ty	pelvis_tz	hip_flexion_r	hip_adduction_r	hip_rotation_r	knee_angle_r	knee_angle_r_beta	ankle_angle_r	subtalar_angle_r	mtp_angle_r	hip_flexion_l	hip_adduction_l	hip_rotation_l	knee_angle_l	knee_angle_l_beta	ankle_angle_l	subtalar_angle_l	mtp_angle_l	L5_S1_Flex_Ext	L5_S1_Lat_Bending	L5_S1_axial_rotation	L4_L5_Flex_Ext	L4_L5_Lat_Bending	L4_L5_axial_rotation	L3_L4_Flex_Ext	L3_L4_Lat_Bending	L3_L4_axial_rotation	L2_L3_Flex_Ext	L2_L3_Lat_Bending	L2_L3_axial_rotation	L1_L2_Flex_Ext	L1_L2_Lat_Bending	L1_L2_axial_rotation	L1_T12_Flex_Ext	L1_T12_Lat_Bending	L1_T12_axial_rotation	Abs_r3	Abs_r2	Abs_r1	Abs_t1	Abs_t2	neck_flexion	neck_bending	neck_rotation	arm_flex_r	arm_add_r	arm_rot_r	elbow_flex_r	pro_sup_r	wrist_flex_r	wrist_dev_r	arm_flex_l	arm_add_l	arm_rot_l	elbow_flex_l	pro_sup_l	wrist_flex_l	wrist_dev_l
2.813559	5.086420	-7.098789	84.350801	0.206693	0.979085	0.553961	0.509168	1.213955	1.812592	3.538687	0.061762	23.258622	10.956865	0.000000	0.051905	-0.329353	-0.744939	3.355193	0.058559	20.553104	-10.915666	0.000000	-0.010160	0.294833	-1.245519	-0.018869	0.392128	-1.323364	-0.016692	0.716858	-1.323364	-0.011612	0.716858	-1.089829	-0.009435	0.601224	-1.011984	-0.005806	0.456697	-0.934140	-0.072574	3.335212	-6.927205	0.000000	0.000000	5.359298	4.575472	24.251409	4.478851	-11.724632	42.244368	28.382455	81.916328	-5.189911	5.678797	-2.362378	-12.706409	34.941575	32.766018	73.688015	-11.008593	-2.974748
2.830508	5.057846	-7.056093	84.720790	0.206343	0.979120	0.553700	0.383049	1.192590	1.717196	3.422653	0.059737	23.022454	10.574061	0.000000	0.049069	-0.298040	-0.260098	3.405553	0.059438	20.470130	-11.048201	0.000000	-0.012296	0.286890	-1.310511	-0.022835	0.381564	-1.392418	-0.020201	0.697545	-1.392418	-0.014053	0.697545	-1.146697	-0.011418	0.585027	-1.064791	-0.007026	0.444393	-0.982884	-0.087829	3.245362	-7.288671	0.000000	0.000000	4.659598	4.361677	25.167128	4.360343	-11.646654	42.332078	28.207210	81.528211	-5.382947	5.371457	-2.297763	-12.806922	35.268061	32.735163	73.418110	-11.121809	-3.277495
2.847458	5.018400	-7.042063	85.074841	0.206008	0.979130	0.553574	0.301829	1.167978	1.713325	3.314705	0.057853	22.779798	10.056574	0.000000	0.102732	-0.268220	0.008757	3.506639	0.061202	20.457746	-10.885115	0.000000	-0.011708	0.278426	-1.377463	-0.021743	0.370307	-1.463554	-0.019235	0.676966	-1.463554	-0.013381	0.676966	-1.205280	-0.010872	0.567767	-1.119189	-0.006690	0.431282	-1.033097	-0.083630	3.149614	-7.661036	0.000000	0.000000	4.076274	4.126298	26.165154	4.278390	-11.556543	42.426618	28.012511	81.201380	-5.555656	5.000366	-2.253161	-12.895436	35.497066	32.696572	73.275502	-11.213046	-3.565547
2.864407	4.973596	-7.041784	85.406346	0.205669	0.979131	0.553572	0.254209	1.136743	1.686391	3.229222	0.056361	22.567278	9.569798	0.000000	0.179745	-0.229550	0.297382	3.617659	0.063140	20.425546	-10.775404	0.000000	-0.010438	0.269953	-1.442869	-0.019384	0.359038	-1.533049	-0.017148	0.656364	-1.533049	-0.011929	0.656364	-1.262511	-0.009693	0.550489	-1.172331	-0.005964	0.418158	-1.082152	-0.074556	3.053765	-8.024807	0.000000	0.000000	3.603880	3.896558	27.220404	4.253272	-11.470817	42.589871	27.812501	80.821740	-5.621147	4.699321	-2.198180	-12.970867	35.745851	32.625175	73.096058	-11.290234	-3.849344
2.881356	4.922606	-7.057459	85.741388	0.205299	0.979120	0.553691	0.236554	1.096843	1.607856	3.158020	0.055118	22.399275	9.130357	0.000000	0.285339	-0.182593	0.621591	3.735304	0.065193	20.387022	-10.691735	0.000000	-0.008121	0.260873	-1.508940	-0.015081	0.346962	-1.603249	-0.013341	0.634288	-1.603249	-0.009281	0.634288	-1.320322	-0.007541	0.531973	-1.226014	-0.004640	0.404093	-1.131705	-0.058005	2.951053	-8.392271	0.000000	0.000000	3.267930	3.652264	28.251343	4.304067	-11.397597	42.954919	27.584322	80.283261	-5.630169	4.407891	-2.127526	-13.032849	36.014517	32.519201	72.797275	-11.301661	-4.086657
2.898305	4.866798	-7.087060	86.064938	0.204915	0.979101	0.553952	0.253313	1.049291	1.492809	3.110977	0.054297	22.286703	8.746589	0.000000	0.421947	-0.129818	0.917307	3.865865	0.067472	20.376924	-10.564714	0.000000	-0.006679	0.250931	-1.572172	-0.012404	0.333738	-1.670433	-0.010973	0.610113	-1.670433	-0.007633	0.610113	-1.375651	-0.006202	0.511698	-1.277390	-0.003816	0.388692	-1.179129	-0.047707	2.838579	-8.743950	0.000000	0.000000	3.096298	3.408394	29.217492	4.439081	-11.333193	43.518284	27.319167	79.655491	-5.537376	4.120556	-2.035470	-13.069752	36.289136	32.362959	72.353940	-11.256752	-4.318673
2.915254	4.804660	-7.135764	86.373050	0.204523	0.979056	0.554319	0.303563	0.992382	1.360015	3.079750	0.053752	22.227323	8.409617	0.000000	0.587454	-0.065857	1.263527	3.995064	0.069727	20.361675	-10.528186	0.000000	-0.005062	0.239867	-1.631516	-0.009400	0.319024	-1.733486	-0.008316	0.583214	-1.733486	-0.005785	0.583214	-1.427576	-0.004700	0.489138	-1.325607	-0.002892	0.371555	-1.223637	-0.036154	2.713428	-9.074002	0.000000	0.000000	3.082932	3.145680	30.059312	4.646585	-11.290048	44.293099	27.035128	78.927177	-5.355711	3.823313	-1.942291	-13.076190	36.480926	32.179544	71.869108	-11.142755	-4.486451
2.932203	4.742200	-7.192647	86.688853	0.204095	0.978994	0.554799	0.379653	0.928998	1.098785	3.077881	0.053719	22.238182	8.236381	0.000000	0.771597	0.003863	1.707431	4.117631	0.071866	20.330849	-10.625996	0.000000	-0.006002	0.227701	-1.688122	-0.011145	0.302843	-1.793630	-0.009860	0.553633	-1.793630	-0.006859	0.553633	-1.477107	-0.005573	0.464329	-1.371599	-0.003429	0.352709	-1.266092	-0.042868	2.575804	-9.388828	0.000000	0.000000	3.225105	2.883426	30.709202	4.885685	-11.253713	45.080272	26.763709	78.263815	-5.089370	3.550652	-1.815302	-13.061824	36.677078	31.950059	71.245111	-10.986830	-4.634060
2.949153	4.674441	-7.261140	86.987618	0.203675	0.978913	0.555379	0.488016	0.854565	0.740433	3.110462	0.054288	22.314846	8.221238	0.000000	0.976034	0.082283	2.161121	4.236401	0.073939	20.297901	-10.791189	0.000000	-0.008578	0.213783	-1.740752	-0.015931	0.284331	-1.849549	-0.014093	0.519791	-1.849549	-0.009804	0.519791	-1.523158	-0.007966	0.435946	-1.414361	-0.004902	0.331149	-1.305564	-0.061274	2.418353	-9.681540	0.000000	0.000000	3.484064	2.630158	31.174048	5.179485	-11.229431	46.014519	26.479956	77.601632	-4.793831	3.228728	-1.671763	-13.033386	36.843139	31.689787	70.593159	-10.830751	-4.780937
2.966102	4.604606	-7.331284	87.253032	0.203301	0.978826	0.556013	0.605242	0.775374	0.357184	3.153059	0.055031	22.427331	8.305130	0.000000	1.185500	0.161355	2.482967	4.355739	0.076022	20.306298	-10.850884	0.000000	-0.012857	0.198181	-1.786086	-0.023877	0.263580	-1.897716	-0.021123	0.481857	-1.897716	-0.014694	0.481857	-1.562825	-0.011939	0.404130	-1.451195	-0.007346	0.306982	-1.339564	-0.091836	2.241860	-9.933673	0.000000	0.000000	3.795157	2.383276	31.433632	5.504990	-11.218972	47.048647	26.206312	76.904253	-4.476339	2.885395	-1.511716	-13.003944	37.001873	31.416016	69.925277	-10.673432	-4.891691
2.983051	4.536619	-7.396770	87.511084	0.202949	0.978747	0.556705	0.727615	0.696305	-0.090376	3.214571	0.056105	22.566723	8.504470	0.000000	1.400755	0.231273	2.661248	4.492594	0.078411	20.366590	-10.744178	0.000000	-0.019486	0.181287	-1.829586	-0.036188	0.241111	-1.943935	-0.032014	0.440780	-1.943935	-0.022271	0.440780	-1.600888	-0.018095	0.369680	-1.486539	-0.011134	0.280813	-1.372190	-0.139189	2.050750	-10.175610	0.000000	0.000000	4.108462	2.204920	31.571927	5.859422	-11.205978	48.158274	25.923656	76.190633	-4.176453	2.466438	-1.315785	-12.978847	37.255898	31.100592	69.188266	-10.594042	-5.066316
3.000000	4.471197	-7.453925	87.740527	0.202657	0.978669	0.557388	0.842320	0.620719	-0.510426	3.280244	0.057251	22.711984	8.732534	0.000000	1.597763	0.300645	2.863006	4.620336	0.080640	20.392187	-10.748107	0.000000	-0.026918	0.163551	-1.868299	-0.049990	0.217523	-1.985068	-0.044224	0.397658	-1.985068	-0.030765	0.397658	-1.634762	-0.024996	0.333514	-1.517993	-0.015381	0.253341	-1.401224	-0.192274	1.850124	-10.390919	0.000000	0.000000	4.363226	2.102940	31.646792	6.213741	-11.187547	49.256638	25.654872	75.518956	-3.910649	2.010095	-1.126244	-12.948141	37.429258	30.782556	68.609352	-10.530994	-5.213416
3.016949	4.405562	-7.494644	87.937226	0.202441	0.978611	0.558027	0.938385	0.544203	-0.938797	3.346905	0.058415	22.859198	9.046613	0.000000	1.768333	0.366070	2.930427	4.751757	0.082934	20.447536	-10.610882	0.000000	-0.034866	0.144714	-1.900168	-0.064750	0.192470	-2.018929	-0.057282	0.351858	-2.018929	-0.039849	0.351858	-1.662647	-0.032377	0.295101	-1.543887	-0.019923	0.224162	-1.425126	-0.249046	1.637036	-10.568165	0.000000	0.000000	4.517101	2.078930	31.693200	6.561389	-11.161321	50.354965	25.397916	74.796507	-3.706225	1.534511	-0.932208	-12.925425	37.600721	30.460355	68.111180	-10.487861	-5.351716
3.033898	4.342913	-7.528672	88.112255	0.202291	0.978544	0.558603	1.023080	0.473567	-1.330732	3.413991	0.059585	22.999090	9.353317	0.000000	1.911567	0.433210	3.156847	4.863118	0.084877	20.410738	-10.749468	0.000000	-0.041869	0.125999	-1.930023	-0.077756	0.167579	-2.050649	-0.068787	0.306354	-2.050649	-0.047852	0.306354	-1.688770	-0.038880	0.256937	-1.568143	-0.023924	0.195173	-1.447517	-0.299068	1.425327	-10.734207	0.000000	0.000000	4.565706	2.160281	31.834393	6.894207	-11.125525	51.393201	25.158828	74.078856	-3.530032	1.062958	-0.761356	-12.906213	37.715353	30.150922	67.744282	-10.468701	-5.513801
